<svg xmlns="http://www.w3.org/2000/svg" width="24" height="24" viewBox="0 0 24 24"><path fill="#FFF" d="M7.5,5.625 C7.5,5.83210678 7.66789322,6 7.875,6 L8.625,6 C8.83210678,6 9,5.83210678 9,5.625 L9,1.51271066 C9,0.694030738 9.65643275,0.0265642656 10.4749989,0.0129190242 L11.25,0 L11.25,5.625 C11.25,5.83210678 11.4178932,6 11.625,6 L12.375,6 C12.5821068,6 12.75,5.83210678 12.75,5.625 L12.75,0 L13.5250011,0.0129190242 C14.3435673,0.0265642656 15,0.694030738 15,1.51271066 L15,5.625 C15,5.83210678 15.1678932,6 15.375,6 L16.125,6 C16.3321068,6 16.5,5.83210678 16.5,5.625 L16.5,1.84831594 C19.619835,3.47435402 21.75,6.73841367 21.75,10.5 L23.25,11.25 L23.25,13.5 C19.5,14 15.75,14.25 12,14.25 C8.25,14.25 4.5,14 0.75,13.5 L0.75,11.25 L2.25,10.5 C2.25,6.73841367 4.38016496,3.47435402 7.5,1.84831594 L7.5,5.625 Z M4.875,10.5 C4.66789322,10.5 4.5,10.6678932 4.5,10.875 C4.5,11.0821068 4.66789322,11.25 4.875,11.25 L19.125,11.25 C19.3321068,11.25 19.5,11.0821068 19.5,10.875 C19.5,10.6678932 19.3321068,10.5 19.125,10.5 L4.875,10.5 Z M3.12802928,17.2440843 C3.43690659,16.3736365 4.27033588,15.75 5.25,15.75 L18.75,15.75 C19.7296641,15.75 20.5630934,16.3736365 20.8719707,17.2440843 L21.75,17.2440843 C22.1642136,17.2440843 22.5,17.5785465 22.5,17.9911265 L22.5,20.2322529 C22.5,20.6448329 22.1642136,20.9792951 21.75,20.9792951 L20.9304649,20.9792951 C20.5967405,22.6823466 19.1008744,23.9735196 17.2942305,23.994746 C17.1641092,23.9962748 17.031778,23.9978679 16.8972368,23.9995252 C14.5989968,24.0278355 12.5411321,22.7874718 12.0910478,20.9792951 L11.9102812,20.9792951 C11.4671908,22.7813724 9.43977079,23.9995259 7.10276094,23.9995259 C6.98225094,23.9995259 6.86359317,23.9994761 6.74678762,23.9993764 C4.92251826,23.9978199 3.40340988,22.6989667 3.06865752,20.9792951 L2.25,20.9792951 C1.83578644,20.9792951 1.5,20.6448329 1.5,20.2322529 L1.5,17.9911265 C1.5,17.5785465 1.83578644,17.2440843 2.25,17.2440843 L3.12802928,17.2440843 L3.12802928,17.2440843 Z M5.25,17.25 C4.83578644,17.25 4.5,17.5857864 4.5,18 L4.5,20.25 C4.5,21.4926407 5.50735931,22.5 6.75,22.5 L7.21557889,22.5 C8.47471338,22.5 9.59986171,21.7137333 10.0327284,20.5313433 C10.3759648,19.5937811 11.031722,19.125 12,19.125 C12.968278,19.125 13.6240352,19.5937811 13.9672717,20.5313433 C14.4001383,21.7137333 15.5252866,22.5 16.7844211,22.5 L17.25,22.5 C18.4926407,22.5 19.5,21.4926407 19.5,20.25 L19.5,18 C19.5,17.5857864 19.1642136,17.25 18.75,17.25 L5.25,17.25 Z"/></svg>