<?xml version="1.0" encoding="UTF-8"?>
<svg width="12px" height="12px" viewBox="0 0 12 12" version="1.1" xmlns="http://www.w3.org/2000/svg" xmlns:xlink="http://www.w3.org/1999/xlink">
    <title>Icons/12/icon-cancel-white-12</title>
    <g id="Icons/12/icon-cancel-white-12" stroke="none" stroke-width="1" fill="none" fill-rule="evenodd">
        <path d="M7.84699031,6 L10.6174758,8.77048547 C11.1275081,9.28051776 11.1275081,10.1074435 10.6174758,10.6174758 C10.1074435,11.1275081 9.28051776,11.1275081 8.77048547,10.6174758 L6,7.84699031 L3.22951453,10.6174758 C2.71948224,11.1275081 1.89255651,11.1275081 1.38252422,10.6174758 C0.872491927,10.1074435 0.872491927,9.28051776 1.38252422,8.77048547 L4.15300969,6 L1.38252422,3.22951453 C0.872491927,2.71948224 0.872491927,1.89255651 1.38252422,1.38252422 C1.89255651,0.872491927 2.71948224,0.872491927 3.22951453,1.38252422 L6,4.15300969 L8.77048547,1.38252422 C9.28051776,0.872491927 10.1074435,0.872491927 10.6174758,1.38252422 C11.1275081,1.89255651 11.1275081,2.71948224 10.6174758,3.22951453 L7.84699031,6 Z" id="Combined-Shape" fill="#FFFFFF" fill-rule="nonzero"></path>
    </g>
</svg>