<?xml version="1.0" encoding="UTF-8"?>
<svg width="124px" height="56px" viewBox="0 0 124 56" version="1.1" xmlns="http://www.w3.org/2000/svg" xmlns:xlink="http://www.w3.org/1999/xlink">
    <title>logos/3m</title>
    <g id="logos/3m" stroke="none" stroke-width="1" fill="none" fill-rule="evenodd">
        <path d="M79.9149919,11.731102 L75.4625964,30.1827267 L70.9976147,11.731102 L58.1014007,11.731102 L58.1014007,18.5446754 C56.8478076,13.7746932 52.9178685,11.8636229 48.7660081,11.2465 L48.4542408,11.2026175 C48.4022231,11.1957 48.3501802,11.1889785 48.298117,11.18245 L47.9855329,11.1455709 C47.9334077,11.1398022 47.8812719,11.1342205 47.8291301,11.1288225 L47.5162468,11.0986166 C47.359808,11.0845923 47.2034024,11.0721674 47.0471592,11.0612596 L46.7349279,11.0414423 L46.7349279,11.0414423 L46.42336,11.0255235 L46.42336,11.0255235 L46.1126857,11.0133567 C46.0609939,11.0116334 46.0093489,11.0100604 45.9577555,11.0086344 L45.648853,11.0018205 L45.648853,11.0018205 C39.385607,10.918474 32.4458486,13.6833326 32.205136,22.1205592 L40.8676411,22.1205592 C40.8676411,19.5736836 43.1567702,18.1151205 45.3184633,18.1519853 C47.9725944,18.1295459 49.1934633,19.2835738 49.2548214,21.0803312 C49.1635708,22.6398718 48.2605055,23.7249786 45.3404892,23.7249786 L42.4267661,23.7249786 L42.4267661,29.847738 L45.0714576,29.847738 C45.2324383,29.847738 45.4001737,29.8573058 45.571469,29.8770723 L45.7438326,29.9002618 C47.1303413,30.1133476 48.6765269,30.992607 48.7466504,32.8610332 C48.8473406,35.4591989 47.0742489,36.6004043 44.8921031,36.6228437 C42.0291801,36.5144702 40.7273182,34.8391078 40.2383148,32.9176459 L40.1928111,32.7279025 C40.1784995,32.6644212 40.1650352,32.6007219 40.1523921,32.5368512 L40.1168994,32.3447712 L40.1168994,32.3447712 L40.086175,32.1519419 L40.086175,32.1519419 L40.0600604,31.9586426 L40.0600604,31.9586426 L40.0383976,31.7651526 C40.0319011,31.7006552 40.0261201,31.6361726 40.0210283,31.5717513 L40.0077943,31.3787181 C40.0059244,31.346592 40.0042203,31.314493 40.0026785,31.2824267 L39.9953507,31.0904692 L39.9953507,31.0904692 L39.9917627,30.8995779 C39.9914675,30.8678671 39.9913216,30.8362124 39.9913216,30.8046195 L31,30.8046195 L31.0088536,31.2232084 L31.0088536,31.2232084 L31.0182841,31.5028067 L31.0182841,31.5028067 L31.0279912,31.7128962 L31.0279912,31.7128962 L31.0412318,31.9407428 L31.0412318,31.9407428 L31.0586896,32.185322 C31.0619887,32.2274226 31.0654919,32.2701778 31.0692136,32.3135661 L31.0942792,32.5813232 L31.0942792,32.5813232 L31.1252712,32.8632515 C31.5753483,36.6641047 33.7443166,43.8836442 44.6545039,43.9980961 L45.0730309,43.9990057 C51.8239951,44.0615155 56.737363,41.1700344 58.1234267,37.1838295 L58.1234267,43.2937664 L66.7953715,43.2937664 L66.7953715,23.3867843 L71.590743,43.2937664 L79.3391697,43.2937664 L84.1518473,23.4092237 L84.1518473,43.3113974 L93,43.3113974 L93,11.731102 L79.9149919,11.731102 Z M57.9565217,30.25 C57.01769,28.2379063 55.7473695,27.2070085 54.8667993,26.7586633 L54.7344992,26.6942294 L54.7344992,26.6942294 L54.6089327,26.6386651 L54.6089327,26.6386651 L54.4906832,26.5916478 L54.4906832,26.5916478 C56.2914996,25.761803 57.2343435,24.6361562 57.9565217,22.3928571 L57.9565217,30.25 Z" id="Shape" fill="#FF0000" fill-rule="nonzero"></path>
    </g>
</svg>