<?xml version="1.0" encoding="UTF-8"?>
<svg width="124px" height="56px" viewBox="0 0 124 56" version="1.1" xmlns="http://www.w3.org/2000/svg" xmlns:xlink="http://www.w3.org/1999/xlink">
    <title>logos/uvex</title>
    <g id="logos/uvex" stroke="none" stroke-width="1" fill="none" fill-rule="evenodd">
        <g id="uvex-logo" transform="translate(8.000000, 14.000000)" fill="#000000" fill-rule="nonzero">
            <path d="M26.3238095,0.723554302 L17.7142857,0.723554302 L17.7142857,14.3949224 C17.7142857,18.9266573 14.6285714,20.1071932 12.8,20.1071932 C10.9714286,20.0691114 8.68571429,18.9266573 8.68571429,15.5373766 L8.68571429,0.723554302 L0,0.723554302 L0,16.0705219 C0,22.7729196 2.13333333,27 9.44761905,27 C12.3809524,27 16.3047619,25.3624824 17.8666667,22.7729196 L17.9809524,22.7729196 L17.9809524,26.2764457 L26.3238095,26.2764457 L26.3238095,0.723554302 Z M108,26.2383639 L98.8190476,12.7954866 L106.857143,0.723554302 L97.8666667,0.723554302 L94.247619,6.81664316 L90.6666667,0.723554302 L81.2190476,0.723554302 L89.6,12.9478138 L80.4571429,26.2383639 L89.9428571,26.2383639 L94.2095238,19.3074753 L98.552381,26.2383639" id="Shape"></path>
            <polyline id="Path" points="55.2761905 0.723554302 46.5142857 0.723554302 41.6380952 17.5937941 41.5619048 17.5937941 36.7619048 0.723554302 27.7714286 0.723554302 36.5333333 26.2383639 46.4761905 26.2383639 55.2761905 0.723554302"></polyline>
            <path d="M62.6285714,15.5373766 C62.7809524,19.0409027 64.8761905,21.325811 68.6095238,21.325811 C70.7047619,21.325811 73.0666667,20.3737659 73.8666667,18.5077574 L82.0571429,18.5077574 C80.4571429,24.4104372 74.4761905,26.9619182 68.4952381,26.9619182 C59.8095238,26.9619182 54.1714286,21.9351199 54.1714286,13.4047955 C54.1714286,5.59802539 60.4190476,0 68.3047619,0 C77.8666667,0 82.9333333,6.89280677 82.552381,15.5373766 L62.6285714,15.5373766 L62.6285714,15.5373766 Z M73.7904762,10.8533145 C73.6380952,7.99717913 71.2380952,5.63610719 68.3047619,5.63610719 C65.2190476,5.63610719 63.1619048,7.76868829 62.6285714,10.8533145 L73.7904762,10.8533145 Z" id="Shape"></path>
        </g>
    </g>
</svg>