<?xml version="1.0" encoding="UTF-8"?>
<svg width="54px" height="32px" viewBox="0 0 54 32" version="1.1" xmlns="http://www.w3.org/2000/svg" xmlns:xlink="http://www.w3.org/1999/xlink">
    <title>badges/ideal-32</title>
    <g id="badges/ideal-32" stroke="none" stroke-width="1" fill="none" fill-rule="evenodd">
        <rect id="Rectangle-7-Copy-7" fill-opacity="0" fill="#FFFFFF" x="0" y="0" width="54" height="32" rx="4"></rect>
        <g id="Group" transform="translate(9.000000, 0.000000)">
            <path d="M20.9318833,0 L0,0 L0,31.998361 L20.9318833,31.998361 L20.9318833,31.9922889 C25.5041593,31.9295037 29.1262949,30.7845539 31.696728,28.5801489 C34.8228002,25.8992078 36.4078535,21.6663058 36.4078535,15.9991805 C36.4078535,13.2901864 35.9909435,10.8602647 35.1687494,8.7769976 C34.3821563,6.78408292 33.2197357,5.08961057 31.713896,3.74057838 C29.0617193,1.36469813 25.3388049,0.0800299061 20.9318833,0.00704360327 C20.9318833,0.00698288255 20.9318833,0 20.9318833,0 L20.9318833,0 Z" id="Path" fill="#0A0B09"></path>
            <path d="M20.5358158,2.12522512 C24.5925112,2.12522512 27.9735124,3.23313534 30.3133529,5.32921452 C32.9583612,7.69865837 34.2995092,11.2885279 34.2995092,15.9991805 C34.2995092,25.3348694 29.7973507,29.8731359 20.5358158,29.8731359 C19.8160271,29.8731359 3.95922968,29.8731359 2.10834432,29.8731359 C2.10834432,27.9692985 2.10834432,4.02900179 2.10834432,2.12522512 C3.95922968,2.12522512 19.8160271,2.12522512 20.5358158,2.12522512 Z" id="Fill-4" fill="#FFFFFF"></path>
            <polygon id="Fill-1" fill="#0A0B09" points="4.0469368 27.7760852 9.88108696 27.7760852 9.88108696 18.0111615 4.0469368 18.0111615"></polygon>
            <path d="M10.3215502,13.1289729 C10.3215502,14.9673533 8.84287798,16.4585327 7.01909991,16.4585327 C5.19538207,16.4585327 3.7166496,14.9673533 3.7166496,13.1289729 C3.7166496,11.2905924 5.19538207,9.80008098 7.01909991,9.80008098 C8.84287798,9.80008098 10.3215502,11.2905924 10.3215502,13.1289729" id="Fill-2" fill="#0A0B09"></path>
            <path d="M19.9599366,27.7870149 L12.5597083,27.7870149 L12.5597083,4.71247419 L19.9599366,4.71247419 L19.6612746,4.71247419 C25.8328201,4.71247419 32.4019993,7.16759497 32.4019993,16.2800745 C32.4019993,25.9135986 25.8328201,27.7870149 19.6612746,27.7870149 L19.9599366,27.7870149" id="Fill-6" fill="#B9215E"></path>
            <path d="M13.3160015,10.5171319 C13.7929692,10.5171319 14.1495806,10.5538072 14.4064372,10.6293438 C14.7536514,10.7324476 15.0553253,10.9183744 15.3031462,11.1817809 C15.5474129,11.4414834 15.7354772,11.762696 15.8621586,12.1366749 C15.9871533,12.505614 16.0505843,12.9636304 16.0505843,13.4979727 C16.0505843,13.9695905 15.9909483,14.3837665 15.8733629,14.7289638 C15.7285498,15.1538267 15.5175949,15.5038816 15.2464618,15.7692311 C15.0376755,15.9743457 14.7549164,16.1354378 14.4055336,16.2483783 C14.1465687,16.3309585 13.8001979,16.3728558 13.3761195,16.3728558 L11.1336242,16.3728558 L11.1336242,10.5171319 Z M12.8955977,11.7619066 L12.5454318,11.7619066 L12.5454318,15.1280811 L13.2269089,15.1280811 C13.5242457,15.1280811 13.7385137,15.1118687 13.864412,15.0796867 C14.020068,15.0406432 14.1497613,14.9747005 14.2498776,14.8837409 C14.3480059,14.7944815 14.4316771,14.6375184 14.4984815,14.4172844 C14.5690207,14.1846026 14.6048625,13.858168 14.6048625,13.4469066 C14.6048625,13.0367988 14.5693821,12.7209904 14.4995658,12.5081643 C14.4325204,12.3042034 14.3395123,12.1448115 14.2230715,12.0344212 C14.1083776,11.9256704 13.9588658,11.8506803 13.7774277,11.8110904 C13.6782753,11.7886845 13.444731,11.7619066 12.8955977,11.7619066 Z" id="Combined-Shape" fill="#FFFFFE"></path>
            <path d="M17.0060257,10.5171319 L17.0060257,16.3728558 L21.4900524,16.3728558 L21.4900524,15.1280811 C21.4900524,15.1280811 18.6902314,15.1280811 18.4178936,15.1280811 C18.4178936,14.9105187 18.4178936,14.1502346 18.4178936,13.9326723 C18.6870388,13.9326723 21.1775356,13.9326723 21.1775356,13.9326723 L21.1775356,12.6878976 C21.1775356,12.6878976 18.6870388,12.6878976 18.4178936,12.6878976 C18.4178936,12.4874585 18.4178936,11.962285 18.4178936,11.7619066 C18.6892074,11.7619066 21.3846352,11.7619066 21.3846352,11.7619066 L21.3846352,10.5171319 L17.0060257,10.5171319 L17.0060257,10.5171319 Z" id="Fill-11" fill="#FFFFFE"></path>
            <path d="M25.4583781,10.5171319 L27.7815928,16.3728558 L26.2458146,16.3728558 C26.2458146,16.3728558 25.8283624,15.2786685 25.7651723,15.1129009 L23.7734496,15.1129009 C23.7122474,15.2821295 23.3175653,16.3728558 23.3175653,16.3728558 L21.8122075,16.3728558 L24.0696418,10.5171319 L25.4583781,10.5171319 Z M24.7538297,12.4022066 C24.5918486,12.8502041 24.318306,13.6064199 24.2236112,13.8681262 L25.2950116,13.8681262 C25.1979675,13.6053269 24.9188829,12.849354 24.7538297,12.4022066 Z" id="Combined-Shape" fill="#FFFFFE"></path>
            <path d="M28.3376536,10.5626725 L28.3376536,16.3728558 L32.5166932,16.3728558 L32.5166932,15.1280811 C32.5166932,15.1280811 30.0187871,15.1280811 29.7495214,15.1280811 C29.7495214,14.8443332 29.7495214,10.5626725 29.7495214,10.5626725 L28.3376536,10.5626725 L28.3376536,10.5626725 Z" id="Fill-16" fill="#FFFFFE"></path>
        </g>
    </g>
</svg>