<?xml version="1.0" encoding="UTF-8"?>
<svg width="54px" height="32px" viewBox="0 0 54 32" version="1.1" xmlns="http://www.w3.org/2000/svg" xmlns:xlink="http://www.w3.org/1999/xlink">
    <title>badges/mastercard-32</title>
    <g id="badges/mastercard-32" stroke="none" stroke-width="1" fill="none" fill-rule="evenodd">
        <rect id="Rectangle-7-Copy-7" fill-opacity="0" fill="#FFFFFF" x="0" y="0" width="54" height="32" rx="4"></rect>
        <g id="Group" transform="translate(1.000000, 0.000000)" fill-rule="nonzero">
            <rect id="Rectangle-path" fill="#FF5F00" x="18.7492443" y="3.41682521" width="13.8982297" height="25.1547508"></rect>
            <path d="M19.6316715,16.0008659 C19.6278318,11.0930018 21.8649224,6.45591488 25.6983591,3.42571224 C19.1859533,-1.72874468 9.83387728,-0.977953457 4.21451884,5.15045002 C-1.40483961,11.2788535 -1.40483961,20.7273218 4.21451884,26.8557252 C9.83387728,32.9841287 19.1859533,33.7349199 25.6983591,28.580463 C21.8637024,25.5492981 19.6264752,20.9102893 19.6316715,16.0008659 Z" id="_Path_" fill="#EB001B"></path>
            <path d="M51.3990542,16.0008659 C51.3990542,22.1255346 47.9264469,27.7124887 42.4564277,30.3889274 C36.9864085,33.065366 30.4791691,32.3614051 25.6983591,28.5760195 C29.5301232,25.5432443 31.7673822,20.9067739 31.7673822,15.9986441 C31.7673822,11.0905143 29.5301232,6.45404393 25.6983591,3.42126872 C30.4797949,-0.364612615 36.9880461,-1.06822274 42.4584123,1.60933144 C47.9287784,4.28688562 51.4006016,9.87539546 51.3990542,16.0008659 Z" id="Shape" fill="#F79E1B"></path>
        </g>
    </g>
</svg>