<?xml version="1.0" encoding="UTF-8"?>
<svg width="124px" height="56px" viewBox="0 0 124 56" version="1.1" xmlns="http://www.w3.org/2000/svg" xmlns:xlink="http://www.w3.org/1999/xlink">
    <title>logos/sioen</title>
    <g id="logos/sioen" stroke="none" stroke-width="1" fill="none" fill-rule="evenodd">
        <g id="logo-sioen" transform="translate(6.000000, 6.000000)" fill-rule="nonzero">
            <rect id="Rectangle" fill="#0C96D0" x="0" y="0" width="112" height="45"></rect>
            <g id="Group" transform="translate(11.091993, 11.234735)" fill="#FFFFFF">
                <path d="M5.48531802,12.4803256 C5.43677538,12.4559023 5.38823274,12.4436906 5.33969011,12.431479 C3.77419005,11.8208955 0.509697692,10.8561737 0.509697692,6.54545455 C0.509697692,3.28493894 3.03391483,0.708276798 6.46830643,0.708276798 C8.83476,0.708276798 12.2934229,2.3568521 12.4754578,6.54545455 L8.87116697,6.54545455 C8.7134034,4.71370421 7.36634522,4.24966079 6.34694983,4.24966079 C5.16979088,4.24966079 4.25961643,5.10447761 4.25961643,6.3256445 C4.25961643,7.35142469 4.69650016,7.91316147 5.47318236,8.34056988 L5.48531802,12.4803256 Z M7.09936071,8.98778833 C7.26925994,9.04884668 7.46343049,9.10990502 7.64546538,9.17096336 C9.32018637,9.72048847 12.9730198,11.0149254 12.9730198,15.4721845 C12.9730198,19.8928087 9.57503522,21.9932157 6.38335681,21.9932157 C3.77419005,21.9932157 0.218441868,20.2225237 0,15.7286296 L3.72564742,15.7286296 C3.91981797,17.7679783 5.26687615,18.4640434 6.41976379,18.4640434 C7.90031423,18.4640434 9.22310109,17.4382632 9.22310109,15.8873813 C9.22310109,14.3364993 8.49496153,13.7259159 7.11149637,13.1275441 L7.09936071,8.98778833 Z" id="Shape"></path>
                <path d="M46.2247264,10.5142469 C45.7999783,4.50610583 40.8364937,0 34.9871059,0 C29.1377181,0 24.1620977,4.50610583 23.7494853,10.5142469 L27.7421172,10.5142469 C28.106187,6.71641791 31.1886445,3.74898236 34.9871059,3.74898236 C38.7734316,3.74898236 41.8437534,6.71641791 42.2320945,10.5142469 L46.2247264,10.5142469 Z M42.2078232,12.2116689 C41.7830751,15.8385346 38.7855672,18.8303935 34.9749702,18.8303935 C31.1765088,18.8303935 28.1668653,15.8385346 27.7542529,12.2116689 L23.7373497,12.2116689 C24.1742334,18.0244233 29.0649041,22.5793758 34.9749702,22.5793758 C40.8850363,22.5793758 45.775707,18.0244233 46.2125907,12.2238806 L42.2078232,12.2116689 Z" id="Shape"></path>
                <rect id="Rectangle" x="16.565175" y="0.854816825" width="3.98049626" height="20.8941655"></rect>
                <rect id="Rectangle" x="49.3557265" y="0.854816825" width="3.83486835" height="20.9185889"></rect>
                <rect id="Rectangle" x="54.7318236" y="17.9023066" width="8.79835302" height="3.85888738"></rect>
                <rect id="Rectangle" x="54.7318236" y="9.52510176" width="8.79835302" height="3.85888738"></rect>
                <rect id="Rectangle" x="54.7318236" y="0.854816825" width="8.79835302" height="3.85888738"></rect>
                <polygon id="Path" points="86.8913208 22.2252374 86.8913208 0.989145183 83.0564525 0.989145183 83.0564525 13.3962008 68.2509481 0.268656716 68.2509481 5.43419267"></polygon>
                <polygon id="Path" points="68.2509481 7.37584803 68.2509481 21.7489824 72.207173 21.7489824 72.207173 10.9416554"></polygon>
            </g>
        </g>
    </g>
</svg>