<?xml version="1.0" encoding="UTF-8"?>
<svg width="124px" height="56px" viewBox="0 0 124 56" version="1.1" xmlns="http://www.w3.org/2000/svg" xmlns:xlink="http://www.w3.org/1999/xlink">
    <title>logos/mascot</title>
    <g id="logos/mascot" stroke="none" stroke-width="1" fill="none" fill-rule="evenodd">
        <g id="Group" transform="translate(35.000000, 0.000000)" fill-rule="nonzero">
            <rect id="Rectangle" fill="#000000" x="0" y="0" width="54" height="56"></rect>
            <path d="M27.6768179,7.49588601 C27.6768179,7.63074453 27.7215662,7.76560305 27.8222498,7.86674694 L27.8558111,7.90046157 L27.8669981,7.85550873 C27.9117464,7.60826811 28.1690491,7.41721854 28.4711001,7.41721854 C28.773151,7.41721854 29.0304537,7.60826811 29.075202,7.85550873 L29.0863891,7.90046157 L29.1199503,7.86674694 C29.2094469,7.75436484 29.2653822,7.63074453 29.2653822,7.49588601 C29.2653822,7.1362633 28.9073959,6.84406984 28.4822871,6.84406984 C28.0348042,6.84406984 27.6768179,7.1362633 27.6768179,7.49588601" id="Path" fill="#FFFFFF"></path>
            <path d="M26.1665631,9.1816175 C26.1665631,9.23780855 26.0323182,10.5414409 25.4282163,11.0022075 L25.2604102,11.1932571 C25.4394034,11.777644 25.7190802,12.1597431 26.0099441,12.2271724 L26.0211311,12.2271724 C26.8601616,12.418222 28.8626476,12.687939 29.5898073,11.0246839 L29.5003108,10.92354 L29.4555625,10.8785872 C29.3101305,10.7549669 29.0416408,10.5302027 28.8850218,10.4178206 C28.7955252,10.3503913 28.7395898,10.3054385 28.6948415,10.2604857 C28.6500932,10.2155328 28.2249845,9.76600442 28.157862,9.30523781 C28.1354879,9.15914108 28.001243,8.40618102 27.2517091,8.33875176 C26.6252331,8.29379892 26.2224984,8.81075657 26.1665631,9.1816175" id="Path" fill="#FFFFFF"></path>
            <path d="M25.0478558,7.49588601 C25.0478558,7.63074453 25.0926041,7.76560305 25.1932878,7.86674694 L25.226849,7.90046157 L25.238036,7.85550873 C25.2827843,7.60826811 25.540087,7.41721854 25.842138,7.41721854 C26.1441889,7.41721854 26.4014916,7.60826811 26.4462399,7.85550873 L26.457427,7.90046157 L26.4909882,7.86674694 C26.5916718,7.75436484 26.6364201,7.63074453 26.6364201,7.49588601 C26.6364201,7.1362633 26.2896209,6.84406984 25.853325,6.84406984 C25.3946551,6.84406984 25.0478558,7.1362633 25.0478558,7.49588601" id="Path" fill="#FFFFFF"></path>
            <path d="M29.8135488,11.6090708 L29.8135488,11.5416416 C29.8023617,11.4404977 29.7576134,11.3056392 29.690491,11.1707807 C29.1535115,12.474413 27.9005594,12.9127032 25.9651958,12.4631748 L25.9540087,12.4631748 C25.5736482,12.3732691 25.3610938,12.0810757 25.1485395,11.3393538 C24.9807334,11.6203091 24.8800497,11.9462171 24.8800497,12.2271724 C24.8800497,12.2271724 24.8800497,12.2833634 24.8800497,12.2833634 C24.8800497,12.4069837 24.9471722,13.0587999 25.5065258,13.3959462 C26.8937228,14.1938591 28.5717837,13.81176 29.2653822,12.957656 C29.6009944,12.5081276 29.8135488,11.99117 29.8135488,11.6090708" id="Path" fill="#FFFFFF"></path>
            <path d="M28.0348042,22.2291792 L28.0348042,22.2291792 L28.2585457,22.9933775 L28.8738347,22.8809954 L28.6612803,22.1617499 C28.4375388,22.2067028 28.2249845,22.2291792 28.0348042,22.2291792" id="Path" fill="#FFFFFF"></path>
            <path d="M28.8402735,22.1280353 L29.0640149,22.8472808 L29.6345556,22.7461369 L29.3548788,21.9369858 C29.2206339,22.0156532 29.0416408,22.0830825 28.8402735,22.1280353" id="Path" fill="#FFFFFF"></path>
            <polygon id="Path" fill="#FFFFFF" points="28.314481 23.2069035 28.4934742 23.9149107 29.1199503 23.8025286 28.92977 23.0945214"></polygon>
            <polygon id="Path" fill="#FFFFFF" points="29.1199503 23.0608067 29.3213176 23.768814 29.9254195 23.6676701 29.7016781 22.9596629"></polygon>
            <polygon id="Path" fill="#FFFFFF" points="28.5382225 24.1284367 28.7284027 25.0050171 29.377253 24.9038732 29.1758856 24.0160546"></polygon>
            <polygon id="Path" fill="#FFFFFF" points="29.3660659 23.98234 29.5674332 24.8813967 30.2162834 24.7802529 29.9813549 23.8811961"></polygon>
            <polygon id="Path" fill="#FFFFFF" points="28.761964 25.218543 28.9073959 26.1063616 29.5786203 26.0276942 29.4220012 25.1173992"></polygon>
            <polygon id="Path" fill="#FFFFFF" points="29.6121815 25.0836845 29.7688005 26.0052177 30.4512119 25.9265503 30.2610317 24.9825406"></polygon>
            <polygon id="Path" fill="#FFFFFF" points="28.92977 26.3198876 28.9968925 27.2189444 29.7016781 27.1515152 29.6121815 26.2412201"></polygon>
            <polygon id="Path" fill="#FFFFFF" points="29.8023617 26.2187437 29.8918583 27.1290387 30.5854568 27.0616095 30.4847732 26.1400763"></polygon>
            <polygon id="Path" fill="#FFFFFF" points="29.0080796 27.4324704 28.9968925 28.3989565 29.7240522 28.37648 29.7128651 27.3650411"></polygon>
            <polygon id="Path" fill="#FFFFFF" points="29.9030454 27.3425647 29.9142324 28.37648 30.619018 28.3540036 30.607831 27.2751355"></polygon>
            <polygon id="Path" fill="#FFFFFF" points="28.9857054 28.6237207 28.8850218 29.5115392 29.6121815 29.5115392 29.7128651 28.6012442"></polygon>
            <polygon id="Path" fill="#FFFFFF" points="29.9030454 28.590006 29.8023617 29.5115392 30.5071473 29.5227774 30.607831 28.5675296"></polygon>
            <polygon id="Path" fill="#FFFFFF" points="28.6389062 30.567931 29.3660659 30.5791692 29.5786203 29.7250652 28.8514605 29.7250652"></polygon>
            <polygon id="Path" fill="#FFFFFF" points="29.5674332 30.5791692 30.2386576 30.6016456 30.462399 29.7363034 29.7688005 29.7363034"></polygon>
            <polygon id="Path" fill="#FFFFFF" points="28.5717837 30.781457 28.2473586 31.6243227 28.9745183 31.6243227 29.2989434 30.7926952"></polygon>
            <polygon id="Path" fill="#FFFFFF" points="29.5003108 30.8039334 29.1758856 31.6243227 29.8135488 31.6243227 30.160348 30.8264098"></polygon>
            <path d="M27.6656308,32.6469998 C27.7439403,32.6469998 28.3704164,32.658238 28.3704164,32.658238 C28.5494096,32.3997592 28.7172157,32.1300421 28.8626476,31.8490869 L28.1354879,31.8490869 C27.9900559,32.1188039 27.8334369,32.388521 27.6656308,32.6469998" id="Path" fill="#FFFFFF"></path>
            <path d="M28.6053449,32.658238 C28.6724674,32.658238 29.1646986,32.658238 29.1646986,32.658238 C29.3548788,32.3997592 29.545059,32.1300421 29.7016781,31.8378487 C29.6345556,31.8378487 29.0863891,31.8378487 29.0863891,31.8378487 C28.9409571,32.1300421 28.773151,32.3997592 28.6053449,32.658238" id="Path" fill="#FFFFFF"></path>
            <path d="M27.0055935,33.4898655 C27.0950901,33.4898655 27.6656308,33.4898655 27.6656308,33.4898655 C27.8558111,33.298816 28.0348042,33.08529 28.2026103,32.871764 C28.1243008,32.871764 27.531386,32.8605258 27.5090118,32.8605258 C27.3523928,33.08529 27.1733996,33.298816 27.0055935,33.4898655" id="Path" fill="#FFFFFF"></path>
            <path d="M27.9341206,33.4898655 C28.0124301,33.4898655 28.4263518,33.4898655 28.4263518,33.4898655 C28.6277191,33.298816 28.8178993,33.08529 28.9968925,32.871764 C28.918583,32.871764 28.4711001,32.871764 28.4487259,32.871764 C28.2921069,33.08529 28.1243008,33.298816 27.9341206,33.4898655" id="Path" fill="#FFFFFF"></path>
            <path d="M26.2448726,34.1978728 L26.2448726,34.1978728 C26.3567433,34.1978728 26.8489745,34.1753963 26.8489745,34.1753963 C26.927284,34.1304435 27.1510255,33.9731086 27.4418894,33.7146297 C27.3523928,33.7146297 26.8154133,33.7146297 26.7930392,33.7146297 C26.5581106,33.9393939 26.3679304,34.0967289 26.2448726,34.1978728" id="Path" fill="#FFFFFF"></path>
            <path d="M27.2069608,34.1641581 C27.3076445,34.1641581 27.6096955,34.1529199 27.6096955,34.1529199 C27.6656308,34.1079671 27.8893723,33.9618704 28.1914232,33.7146297 C28.1019267,33.7146297 27.7327533,33.7146297 27.7327533,33.7146297 C27.5537601,33.8832029 27.3747669,34.0292996 27.2069608,34.1641581" id="Path" fill="#FFFFFF"></path>
            <polygon id="Path" fill="#FFFFFF" points="27.7215662 16.9359823 26.4798011 17.1382701 26.7147296 18.1834236 28.1243008 17.9586594"></polygon>
            <path d="M26.8489745,18.7453341 L26.6923555,20.4760185 C26.6587943,20.8693558 26.8601616,21.4425045 27.2740833,21.7122216 C27.5985084,21.9257475 28.0348042,21.9931768 28.5382225,21.9032711 C29.533872,21.7122216 29.6793039,21.0716436 29.6793039,20.7120209 C29.6793039,20.3861128 29.5786203,20.1051575 29.3548788,19.8129641 L28.3368552,18.4868553 L26.8489745,18.7453341 Z" id="Path" fill="#FFFFFF"></path>
            <path d="M46.9414267,37.8840056 L47.1993647,37.8840056 C47.3787998,37.8840056 47.4909468,38.0076259 47.4909468,38.1537227 C47.4909468,38.3560104 47.4012292,38.4459161 47.1993647,38.4459161 L46.930212,38.4459161 L46.930212,37.8840056 L46.9414267,37.8840056 Z M46.9414267,38.6032511 L47.5358055,39.2550672 C47.5582349,39.2775436 47.5806643,39.3000201 47.6255231,39.3000201 C47.6703819,39.3000201 47.7152407,39.2663054 47.7152407,39.2213526 C47.7152407,39.187638 47.704026,39.1651615 47.6815966,39.1314469 L47.18815,38.5807746 L47.2666529,38.5807746 C47.5021615,38.5695364 47.6928113,38.4571543 47.6928113,38.1312462 C47.6928113,37.8727674 47.4573027,37.7041943 47.2105794,37.7041943 L46.8517091,37.7041943 C46.784421,37.7041943 46.7507769,37.7491471 46.7507769,37.8053381 L46.7507769,39.1763998 C46.7507769,39.243829 46.784421,39.2775436 46.8517091,39.2775436 C46.9077826,39.2775436 46.9526414,39.2325908 46.9526414,39.1763998 L46.9526414,38.6032511 L46.9414267,38.6032511 Z" id="Shape" fill="#FFFFFF"></path>
            <path d="M45.8110628,38.5245836 C45.8110628,39.2550672 46.4039776,39.8506924 47.1311374,39.8506924 C47.8582971,39.8506924 48.4512119,39.2550672 48.4512119,38.5245836 C48.4512119,37.7940999 47.8582971,37.1984748 47.1311374,37.1984748 C46.4039776,37.1984748 45.8110628,37.7940999 45.8110628,38.5245836 M46.001243,38.5245836 C46.001243,37.8952438 46.5046613,37.3782862 47.1423244,37.3782862 C47.7688005,37.3782862 48.2722188,37.8840056 48.2722188,38.5245836 C48.2722188,39.1539233 47.7688005,39.670881 47.1423244,39.670881 C46.5046613,39.6596428 46.001243,39.1539233 46.001243,38.5245836" id="Shape" fill="#FFFFFF"></path>
            <path d="M46.9414267,37.8840056 L47.1993647,37.8840056 C47.3787998,37.8840056 47.4909468,38.0076259 47.4909468,38.1537227 C47.4909468,38.3560104 47.4012292,38.4459161 47.1993647,38.4459161 L46.930212,38.4459161 L46.930212,37.8840056 L46.9414267,37.8840056 Z M46.9414267,38.6032511 L47.5358055,39.2550672 C47.5582349,39.2775436 47.5806643,39.3000201 47.6255231,39.3000201 C47.6703819,39.3000201 47.7152407,39.2663054 47.7152407,39.2213526 C47.7152407,39.187638 47.704026,39.1651615 47.6815966,39.1314469 L47.18815,38.5807746 L47.2666529,38.5807746 C47.5021615,38.5695364 47.6928113,38.4571543 47.6928113,38.1312462 C47.6928113,37.8727674 47.4573027,37.7041943 47.2105794,37.7041943 L46.8517091,37.7041943 C46.784421,37.7041943 46.7507769,37.7491471 46.7507769,37.8053381 L46.7507769,39.1763998 C46.7507769,39.243829 46.784421,39.2775436 46.8517091,39.2775436 C46.9077826,39.2775436 46.9526414,39.2325908 46.9526414,39.1763998 L46.9526414,38.6032511 L46.9414267,38.6032511 Z" id="Shape" fill="#FFFFFF"></path>
            <path d="M45.8110628,38.5245836 C45.8110628,39.2550672 46.4039776,39.8506924 47.1311374,39.8506924 C47.8582971,39.8506924 48.4512119,39.2550672 48.4512119,38.5245836 C48.4512119,37.7940999 47.8582971,37.1984748 47.1311374,37.1984748 C46.4039776,37.1984748 45.8110628,37.7940999 45.8110628,38.5245836 M46.001243,38.5245836 C46.001243,37.8952438 46.5046613,37.3782862 47.1423244,37.3782862 C47.7688005,37.3782862 48.2722188,37.8840056 48.2722188,38.5245836 C48.2722188,39.1539233 47.7688005,39.670881 47.1423244,39.670881 C46.5046613,39.6596428 46.001243,39.1539233 46.001243,38.5245836" id="Shape" fill="#FFFFFF"></path>
            <path d="M47.377253,42.8625326 C47.377253,42.8625326 43.0031075,42.8625326 43.0031075,42.8625326 C42.61156,42.885009 41.9627098,43.1097732 41.9627098,43.8964479 C41.9627098,44.6831226 42.6003729,44.919125 42.9919204,44.9303632 L43.9875699,44.9303632 C44.0882536,44.9303632 44.1665631,45.0090307 44.1665631,45.1101746 L44.1665631,50.6843267 C44.1665631,51.1563315 44.4350528,51.718242 45.1733996,51.718242 C45.9676818,51.718242 46.1914232,51.0776641 46.2026103,50.6843267 L46.2026103,45.0876982 C46.2026103,44.9865543 46.2809198,44.9078868 46.3816035,44.9078868 L47.3660659,44.9078868 C47.7464264,44.8966486 48.3952766,44.6831226 48.3952766,43.8852097 C48.4064636,42.9299619 47.4891237,42.8625326 47.377253,42.8625326" id="Path" fill="#D0033F"></path>
            <path d="M22.0609074,50.4595625 L20.5506526,44.4583584 C20.5394655,44.3909292 20.147918,42.885009 18.5593536,42.885009 C16.9596022,42.885009 16.5904288,44.3909292 16.5792418,44.4471202 L15.0913611,50.4370861 C15.0130516,50.8191852 15.080174,51.5159542 15.840895,51.7070038 C16.5680547,51.8868152 16.9707893,51.4148104 17.08266,50.9540437 L17.2504661,50.3471804 C17.2728403,50.2685129 17.3399627,50.2123219 17.4294593,50.2123219 L19.7563704,50.2123219 C19.8346799,50.2123219 19.9129894,50.2685129 19.9353636,50.3584186 L20.0807955,50.965282 C20.1143567,51.0776641 20.4164077,51.9654826 21.3337477,51.7294802 C22.0720945,51.5159542 22.1392169,50.8304234 22.0609074,50.4595625 M19.2753263,48.0883002 L19.2753263,48.0883002 C19.2417651,48.1332531 19.1858297,48.1557295 19.1298943,48.1557295 L17.9552517,48.1557295 C17.8993163,48.1557295 17.843381,48.1332531 17.8098198,48.0883002 C17.7762585,48.0433474 17.7650715,47.9871563 17.7762585,47.9309653 L18.3691734,45.5709412 C18.3915475,45.4922737 18.45867,45.4360827 18.5481666,45.4360827 C18.6264761,45.4360827 18.7047856,45.4922737 18.7271597,45.5709412 L19.3088875,47.9309653 C19.3312617,47.9871563 19.3088875,48.0433474 19.2753263,48.0883002" id="Shape" fill="#D0033F"></path>
            <path d="M39.7812306,42.8737708 L37.5214419,42.8737708 C37.4319453,42.8737708 35.3064015,42.9074855 35.3064015,45.0989364 L35.3064015,49.4930765 C35.3064015,49.5829821 35.3623369,51.7182564 37.5214419,51.7182564 L39.7924177,51.7182564 C39.8259789,51.7182564 40.77688,51.7294802 41.4145432,51.1226169 C41.8060907,50.7405178 41.996271,50.1898455 41.996271,49.4930765 L41.996271,45.0989364 C41.996271,45.0090307 41.9515227,42.8737708 39.7812306,42.8737708 M39.9602237,45.5147502 L39.9602237,49.0435481 C39.9602237,49.3919326 39.691734,49.6616496 39.3561218,49.6616496 L37.9465507,49.6616496 C37.5997514,49.6616496 37.3424487,49.3919326 37.3424487,49.0435481 L37.3424487,45.5147502 C37.3424487,45.1663656 37.5885643,44.919125 37.9465507,44.919125 L39.3561218,44.919125 C39.7029211,44.919125 39.9602237,45.1776039 39.9602237,45.5147502" id="Shape" fill="#D0033F"></path>
            <path d="M24.4213797,44.919125 L26.5469236,44.919125 C26.6476072,44.919125 26.7259167,44.9977925 26.7259167,45.0989364 C26.7259167,45.2113185 26.770665,45.8069436 27.4195152,45.9642785 L27.4418894,45.9642785 C27.531386,45.986755 27.6320696,45.9979932 27.7327533,45.9979932 C28.4822871,45.9979932 28.761964,45.4473209 28.761964,44.9753161 L28.761964,44.649408 C28.761964,42.9524383 27.1957738,42.8962472 27.0279677,42.8962472 L23.9627098,42.8962472 C22.2622747,42.8962472 22.2063393,44.4808348 22.2063393,44.6606462 L22.2063393,46.5936183 C22.2063393,47.807345 23.0341827,48.1782059 23.5264139,48.290588 C23.537601,48.290588 23.5487881,48.3018262 23.5487881,48.3018262 L23.5823493,48.3130644 C23.7837166,48.3580173 23.9291485,48.3580173 23.9627098,48.3580173 L26.5581106,48.3580173 C26.6587943,48.3580173 26.7371038,48.4366847 26.7371038,48.5378286 L26.7371038,49.4930765 C26.7371038,49.5942203 26.6587943,49.6728878 26.5581106,49.6728878 L24.4213797,49.6728878 C24.3206961,49.6728878 24.2423866,49.5942203 24.2423866,49.4930765 C24.2423866,49.3806944 24.2088254,48.8300221 23.5599751,48.6839253 C23.5599751,48.6839253 23.4928527,48.6726871 23.4928527,48.6726871 C23.4928527,48.6726871 23.224363,48.6502107 23.224363,48.6502107 C22.4860162,48.6502107 22.2063393,49.1896448 22.1951523,49.6504114 L22.1951523,49.9763195 C22.1951523,51.6845274 23.7501554,51.7407184 23.9291485,51.7407184 L27.0167806,51.7407184 C28.6948415,51.7407184 28.7507769,50.1786073 28.7507769,49.9987959 L28.7507769,48.0545856 C28.7507769,46.7959061 27.8893723,46.4475216 27.3747669,46.3463777 C27.3747669,46.3463777 27.3300186,46.3351395 27.3300186,46.3351395 C27.1622126,46.3014248 27.0391548,46.3014248 27.0167806,46.3014248 L24.4101927,46.3014248 C24.309509,46.3014248 24.2311995,46.2227574 24.2311995,46.1216135 L24.2311995,45.1214128 C24.2423866,44.9977925 24.3206961,44.919125 24.4213797,44.919125" id="Path" fill="#D0033F"></path>
            <path d="M34.154133,49.6616496 L31.7936607,49.6616496 C31.4356743,49.6616496 31.2007458,49.414409 31.2007458,49.0547863 L31.2007458,45.5259884 C31.2007458,45.1438892 31.4133002,44.9303632 31.7936607,44.9303632 L34.154133,44.9303632 C34.6239901,44.9303632 35.1833437,44.6606462 35.1833437,43.9189243 C35.1833437,42.9412001 34.2548167,42.885009 34.154133,42.885009 L34.154133,42.885009 L31.379739,42.885009 C31.2902424,42.885009 29.1646986,42.9299619 29.1646986,45.1101746 L29.1646986,49.4930765 C29.1646986,49.5829821 29.2206339,51.718242 31.379739,51.718242 L34.154133,51.718242 C34.6351771,51.7070038 35.1833437,51.4372868 35.1833437,50.6955649 C35.1721566,49.897652 34.5344935,49.6616496 34.154133,49.6616496" id="Path" fill="#D0033F"></path>
            <path d="M11.9813549,42.8512944 C11.2094469,42.8512944 10.616532,43.0872968 10.1802362,43.4356813 C9.74394034,43.0872968 9.15102548,42.8512944 8.37911746,42.8512944 C6.29832194,42.8512944 5.53760099,44.5595023 5.53760099,45.7057997 L5.53760099,50.7180413 C5.53760099,51.3024283 6.00745805,51.7744331 6.57799876,51.7744331 C7.15972654,51.7744331 7.61839652,51.3024283 7.61839652,50.7180413 L7.61839652,45.7170379 C7.64077067,45.2113185 7.88688626,44.9528397 8.36793039,44.9528397 C8.84897452,44.9528397 9.10627719,45.2113185 9.11746426,45.7170379 L9.11746426,50.7068031 C9.11746426,51.29119 9.58732132,51.7631949 10.157862,51.7631949 C10.7395898,51.7631949 11.2094469,51.29119 11.2094469,50.7068031 L11.2094469,45.7170379 C11.2206339,45.2113185 11.4779366,44.9528397 11.9589807,44.9528397 C12.4400249,44.9528397 12.6973275,45.2113185 12.7085146,45.7170379 L12.7085146,50.7180413 C12.7085146,51.3024283 13.1783717,51.7744331 13.7489124,51.7744331 C14.3194531,51.7744331 14.7893101,51.3024283 14.7893101,50.7180413 L14.7893101,45.7057997 C14.8228713,44.5482641 14.0621504,42.8512944 11.9813549,42.8512944" id="Path" fill="#D0033F"></path>
            <path d="M27.1622126,8.63094521 C27.5761342,8.63094521 27.9117464,8.96809151 27.9117464,9.38390528 C27.9117464,9.79971904 27.5761342,10.1368653 27.1622126,10.1368653 C26.7482909,10.1368653 26.4126787,9.79971904 26.4126787,9.38390528 C26.4126787,8.96809151 26.7482909,8.63094521 27.1622126,8.63094521 M27.3188316,9.41761991 C27.4754506,9.41761991 27.6096955,9.28276139 27.6096955,9.12542645 C27.6096955,8.96809151 27.4754506,8.83323299 27.3188316,8.83323299 C27.1622126,8.83323299 27.0279677,8.96809151 27.0279677,9.12542645 C27.0167806,9.28276139 27.1510255,9.41761991 27.3188316,9.41761991 M27.6768179,7.49588601 C27.6768179,7.63074453 27.7215662,7.75436484 27.8222498,7.86674694 L27.8558111,7.90046157 L27.8669981,7.85550873 C27.9117464,7.60826811 28.1690491,7.41721854 28.4711001,7.41721854 C28.773151,7.41721854 29.0304537,7.60826811 29.075202,7.85550873 L29.0863891,7.90046157 L29.1199503,7.86674694 C29.2094469,7.75436484 29.2653822,7.63074453 29.2653822,7.49588601 C29.2653822,7.1362633 28.9073959,6.84406984 28.4822871,6.84406984 C28.0348042,6.84406984 27.6768179,7.1362633 27.6768179,7.49588601 M26.1665631,9.1816175 C26.1665631,9.23780855 26.0323182,10.5414409 25.4282163,11.0022075 L25.2604102,11.1932571 C25.4394034,11.777644 25.7190802,12.1597431 26.0099441,12.2271724 L26.0211311,12.2271724 C26.8601616,12.418222 28.8626476,12.687939 29.5898073,11.0246839 L29.5003108,10.92354 C29.5003108,10.92354 29.4555625,10.8785872 29.4555625,10.8785872 C29.3101305,10.7549669 29.0416408,10.5302027 28.8962088,10.4178206 C28.8067122,10.3503913 28.7507769,10.3054385 28.7060286,10.2604857 C28.6612803,10.2155328 28.2249845,9.76600442 28.1690491,9.30523781 C28.146675,9.15914108 28.0124301,8.40618102 27.2628962,8.33875176 C26.6252331,8.29379892 26.2336855,8.81075657 26.1665631,9.1816175 M25.0478558,7.49588601 C25.0478558,7.63074453 25.0926041,7.75436484 25.1932878,7.86674694 L25.226849,7.90046157 L25.238036,7.85550873 C25.2827843,7.60826811 25.540087,7.41721854 25.842138,7.41721854 C26.1441889,7.41721854 26.4014916,7.60826811 26.4462399,7.85550873 L26.457427,7.90046157 L26.4909882,7.86674694 C26.5916718,7.75436484 26.6364201,7.63074453 26.6364201,7.49588601 C26.6364201,7.1362633 26.2896209,6.84406984 25.853325,6.84406984 C25.3946551,6.84406984 25.0478558,7.1362633 25.0478558,7.49588601 M29.8135488,11.6090708 L29.8135488,11.5416416 C29.8023617,11.4404977 29.7576134,11.3056392 29.690491,11.1707807 C29.1535115,12.474413 27.9005594,12.9127032 25.9651958,12.4631748 L25.9540087,12.4631748 C25.5736482,12.3732691 25.3610938,12.0810757 25.1485395,11.3393538 C24.9807334,11.6203091 24.8688626,11.9462171 24.8688626,12.2271724 C24.8688626,12.2271724 24.8688626,12.2833634 24.8688626,12.2833634 C24.8800497,12.4069837 24.9359851,13.0587999 25.4953387,13.3959462 C26.8825357,14.1938591 28.5605966,13.81176 29.2541952,12.957656 C29.6009944,12.5081276 29.8135488,11.99117 29.8135488,11.6090708 M28.0348042,22.2291792 L28.0348042,22.2291792 L28.2585457,22.9933775 L28.8738347,22.8809954 L28.6612803,22.1617499 C28.4375388,22.2067028 28.2249845,22.2291792 28.0348042,22.2291792 M28.8402735,22.1280353 L29.0640149,22.858519 L29.6345556,22.7573751 L29.3548788,21.948224 C29.2206339,22.0156532 29.0416408,22.0830825 28.8402735,22.1280353 M28.314481,23.2069035 L28.4934742,23.9149107 L29.1199503,23.8025286 L28.92977,23.0945214 L28.314481,23.2069035 Z M29.1199503,23.0608067 L29.3101305,23.768814 L29.9142324,23.6676701 L29.7016781,22.9596629 L29.1199503,23.0608067 Z M28.5382225,24.1284367 L28.7284027,25.0162553 L29.377253,24.9151114 L29.1758856,24.0272928 L28.5382225,24.1284367 Z M29.3660659,23.98234 L29.5674332,24.8813967 L30.2050963,24.7802529 L29.9701678,23.8811961 L29.3660659,23.98234 Z M28.761964,25.218543 L28.8962088,26.1063616 L29.5674332,26.0276942 L29.4108142,25.1173992 L28.761964,25.218543 Z M29.6121815,25.0836845 L29.7688005,26.0052177 L30.4400249,25.9265503 L30.2498446,24.9825406 L29.6121815,25.0836845 Z M28.92977,26.3198876 L29.0080796,27.2189444 L29.7016781,27.1515152 L29.6121815,26.2412201 L28.92977,26.3198876 Z M29.8023617,26.2187437 L29.8918583,27.1402769 L30.5854568,27.0728477 L30.4735861,26.1400763 L29.8023617,26.2187437 Z M29.0080796,27.4324704 L28.9968925,28.3989565 L29.7128651,28.37648 L29.7016781,27.3650411 L29.0080796,27.4324704 Z M29.9030454,27.3425647 L29.9142324,28.37648 L30.619018,28.3540036 L30.607831,27.2751355 L29.9030454,27.3425647 Z M28.9857054,28.6237207 L28.8850218,29.5115392 L29.6121815,29.5115392 L29.7128651,28.590006 L28.9857054,28.6237207 Z M29.9030454,28.590006 L29.8023617,29.5115392 L30.4959602,29.5115392 L30.607831,28.5562914 L29.9030454,28.590006 Z M28.6389062,30.5566928 L29.3660659,30.567931 L29.5674332,29.7250652 L28.8402735,29.713827 L28.6389062,30.5566928 Z M29.5674332,30.5791692 L30.2386576,30.5904074 L30.462399,29.7250652 L29.7688005,29.7250652 L29.5674332,30.5791692 Z M28.5717837,30.781457 L28.2361715,31.6243227 L28.9633313,31.6243227 L29.2877564,30.7926952 L28.5717837,30.781457 Z M29.5003108,30.8039334 L29.1758856,31.6355609 L29.8023617,31.6355609 L30.149161,30.8264098 L29.5003108,30.8039334 Z M27.6656308,32.6469998 C27.7439403,32.6469998 28.3704164,32.6469998 28.3704164,32.6469998 C28.5494096,32.388521 28.7172157,32.1188039 28.8626476,31.8378487 L28.1354879,31.8378487 C27.9900559,32.1188039 27.8334369,32.3997592 27.6656308,32.6469998 M28.6053449,32.658238 C28.6724674,32.658238 29.1646986,32.658238 29.1646986,32.658238 C29.3548788,32.3997592 29.545059,32.1300421 29.7016781,31.8378487 C29.6345556,31.8378487 29.0863891,31.8378487 29.0863891,31.8378487 C28.9409571,32.1300421 28.773151,32.3997592 28.6053449,32.658238 M27.0055935,33.4898655 C27.0950901,33.4898655 27.6656308,33.4898655 27.6656308,33.4898655 C27.8558111,33.298816 28.0348042,33.08529 28.2026103,32.871764 C28.1243008,32.871764 27.531386,32.871764 27.5090118,32.871764 C27.3523928,33.08529 27.1733996,33.298816 27.0055935,33.4898655 M27.9341206,33.4898655 C28.0124301,33.4898655 28.4151647,33.4898655 28.4151647,33.4898655 C28.616532,33.298816 28.8067122,33.08529 28.9857054,32.871764 C28.9073959,32.871764 28.459913,32.871764 28.4375388,32.871764 C28.2921069,33.08529 28.1131137,33.298816 27.9341206,33.4898655 M26.2448726,34.1978728 L26.2448726,34.1978728 C26.3567433,34.1978728 26.8489745,34.1753963 26.8489745,34.1753963 C26.927284,34.1192053 27.1510255,33.9731086 27.4418894,33.7146297 C27.3523928,33.7146297 26.8154133,33.7146297 26.7930392,33.7146297 C26.5581106,33.9393939 26.3679304,34.0967289 26.2448726,34.1978728 M27.1957738,34.1641581 C27.2964574,34.1641581 27.5985084,34.1529199 27.5985084,34.1529199 C27.6544438,34.1079671 27.8781852,33.9618704 28.1802362,33.7146297 L28.1802362,33.7146297 C28.0907396,33.7146297 27.7215662,33.7146297 27.7215662,33.7146297 C27.5537601,33.8832029 27.3747669,34.0292996 27.1957738,34.1641581 M27.3635799,19.2285772 L27.2517091,20.5209713 C27.229335,20.7457355 27.3747669,21.09412 27.5761342,21.2289785 C27.7775016,21.363837 28.0795525,21.3975517 28.4263518,21.3301224 C28.9857054,21.2289785 29.1199503,20.9704997 29.1199503,20.7007827 C29.1199503,20.5097331 29.0640149,20.3523982 28.918583,20.1501104 L28.1131137,19.0937186 L27.3635799,19.2285772 Z M28.8962088,20.7007827 C28.8962088,20.8019266 28.8962088,20.9817379 28.5270354,21.0828818 L28.2809198,20.4085892 L28.761964,20.3299217 C28.8514605,20.4647803 28.8962088,20.5771624 28.8962088,20.7007827 M27.5649472,19.4196267 L27.688005,19.3971503 L28.001243,20.2624925 L27.4866377,20.3523982 C27.5201989,20.0040136 27.5649472,19.4196267 27.5649472,19.4196267 M28.6277191,20.1501104 L28.2137974,20.2175396 L27.9005594,19.3521975 L28.001243,19.3297211 L28.6277191,20.1501104 Z M27.4642635,20.5546859 L28.0683654,20.453542 L28.314481,21.1278346 C28.0571784,21.1727875 27.8334369,21.1390728 27.688005,21.0491672 C27.5649472,20.9704997 27.4642635,20.7120209 27.4642635,20.5546859 M22.0609074,7.4846478 C22.0497203,7.52960064 22.0944686,7.5970299 22.150404,7.60826811 C22.1727781,7.61950632 22.4077067,7.68693558 22.4077067,8.05779651 C22.4077067,8.11398756 22.4524549,8.1589404 22.4972032,8.17017861 C22.5531386,8.18141682 22.609074,8.14770219 22.620261,8.09151114 C22.620261,8.09151114 22.7545059,7.72065021 22.9670603,7.64198274 C23.1013052,7.58579169 23.0229956,7.38350391 22.8887508,7.42845675 C22.77688,7.47340959 22.6761964,7.55207706 22.5866998,7.68693558 L22.5643257,7.72065021 L22.5531386,7.68693558 C22.463642,7.49588601 22.307023,7.40598033 22.2063393,7.38350391 C22.1280298,7.3722657 22.0832815,7.40598033 22.0609074,7.4846478 M32.0397763,6.61930564 C31.7600994,6.67549669 31.5811063,6.78787879 31.5027968,6.96769015 L31.4916097,7.00140478 L31.4692356,6.97892836 C31.3238036,6.81035521 31.22312,6.74292595 31.22312,6.74292595 C31.1671846,6.70921132 31.1000622,6.72044953 31.0665009,6.77664058 C31.0329397,6.83283163 31.0441268,6.90026089 31.1000622,6.93397552 C31.1000622,6.93397552 31.3014295,7.08007225 31.536358,7.43969496 C31.5699192,7.49588601 31.6370416,7.50712422 31.692977,7.47340959 C31.7489124,7.43969496 31.7600994,7.3722657 31.7377253,7.31607465 C31.7265382,7.30483644 31.6706029,7.16997792 31.7265382,7.05759583 C31.7712865,6.95645194 31.9055314,6.87778447 32.1068987,6.84406984 C32.1628341,6.83283163 32.2075823,6.77664058 32.1963953,6.70921132 C32.1628341,6.65302027 32.0957116,6.60806743 32.0397763,6.61930564 M21.1659416,22.5326109 C20.147918,24.0947221 19.8011187,25.3871162 19.6668738,26.5446518 C19.532629,27.679711 19.8346799,29.0282962 19.8682411,29.1743929 C19.9129894,29.3879189 19.8570541,29.5789685 19.8011187,29.6126831 C19.7787446,29.6239213 19.7339963,29.6239213 19.7116221,29.6126831 C19.689248,29.5564921 19.6780609,29.5115392 19.6556868,29.4553482 C19.6221255,29.3429661 19.5773773,29.230584 19.5550031,29.1069637 C19.543816,29.017058 19.4543195,28.9721052 19.3760099,28.9833434 C19.2977004,29.0058198 19.2417651,29.0844873 19.2529521,29.1631547 C19.2753263,29.2980132 19.4431324,29.7475416 19.4543195,29.8374473 C19.5214419,30.2195465 19.4766936,30.4892635 19.3312617,30.4892635 C18.9844624,30.4892635 18.6488502,30.410596 18.4139217,30.19707 C17.6084525,29.4216336 17.4518334,26.8368453 17.5301429,26.0052177 L17.1385954,26.3311258 C17.1385954,26.3311258 17.1609695,23.1731888 18.8390305,20.4423038 L18.0335612,20.8468794 C18.0335612,20.8468794 18.6376631,18.5992374 21.4344313,16.4190247 L20.6513362,16.5201686 C20.6513362,16.5201686 22.4412679,15.1378688 22.7097576,11.8001204 L22.150404,12.0136464 C22.150404,12.0136464 22.5419515,10.9347782 22.5307644,10.2717239 L22.0161591,10.4627734 C22.0161591,10.4627734 22.1056557,9.66486053 22.3741454,8.90066225 C22.3741454,8.90066225 20.8303294,8.81075657 21.1883157,7.39474212 C21.5798633,5.88882199 23.23555,6.94521373 23.23555,6.94521373 C23.23555,6.94521373 24.5891858,4.33794903 27.1957738,4.0794702 C27.1957738,4.0794702 26.916097,4.29299619 27.0167806,4.78747742 C27.0167806,4.78747742 27.6544438,4.05699378 28.314481,4.14689946 C28.314481,4.14689946 28.0124301,4.4166165 28.0124301,4.73128637 C28.0124301,4.73128637 28.9968925,4.32671082 29.5114978,4.6526189 C29.5114978,4.6526189 29.2430081,4.80995384 29.1758856,4.96728878 C29.1758856,4.96728878 30.0932256,5.4392936 30.6973275,6.39454144 C30.6973275,6.39454144 32.3977626,5.25948224 33.0130516,6.63054385 C33.6283406,8.00160546 31.9279055,8.17017861 31.9279055,8.17017861 C31.9279055,8.17017861 32.5543816,8.87818583 32.7110006,10.3953442 L32.2523306,10.2042946 C32.2523306,10.2042946 32.308266,11.2831628 32.5991299,12.0923139 L32.1404599,12.0698374 C32.1404599,12.0698374 32.2970789,12.7104154 32.6438782,13.328517 L32.2411436,13.1936584 C32.2411436,13.1936584 32.4760721,14.6321493 32.9347421,15.1603452 C33.382225,15.688541 33.9863269,16.2167369 34.2548167,16.5651214 L33.7849596,16.5763596 C33.7849596,16.5763596 35.2728403,18.0485651 35.8657551,19.3184828 L35.4070851,19.217339 C35.4070851,19.217339 37.2753263,21.1615493 36.6488502,24.892635 C36.4698571,24.4093919 36.1678061,23.7013847 35.7650715,23.072045 C35.843381,23.072045 36.1678061,23.0495685 36.1678061,23.0495685 C36.1678061,23.0495685 35.8993163,22.3078467 34.4002486,20.8581176 C34.4897452,20.8356412 34.8589186,20.7682119 34.8589186,20.7682119 C34.8589186,20.7682119 33.8297079,19.6219145 33.1696706,18.7565723 C32.8116843,18.2958057 32.4536979,17.8687538 32.1963953,17.3967489 C32.151647,17.3180815 32.0509633,17.2956051 31.9838409,17.3405579 C31.9390926,17.3742725 31.8831572,17.4754164 31.9279055,17.5540839 C32.2523306,18.1047562 32.5096333,18.4868553 32.923555,19.0150512 C33.4269733,19.6556291 33.9751398,20.2737307 34.2548167,20.5771624 C34.1429459,20.5996388 33.7402113,20.6783062 33.7402113,20.6783062 C33.7402113,20.6783062 35.0043505,21.7796508 35.6532007,22.7798515 L35.1945308,22.8135661 C35.1945308,22.8135661 36.0559354,23.8474814 36.7830951,26.3198876 L36.4251088,26.1063616 C36.4251088,26.1063616 36.9509012,28.4326711 36.2461156,30.3431668 L35.9664388,30.0172587 C35.9664388,30.0172587 35.3175886,33.8157736 31.2678682,34.9508328 C31.2678682,34.9508328 31.1224363,36.7714228 33.1025482,37.4007626 C35.0938471,38.0301023 36.0894966,38.4459161 36.6264761,38.9628738 C36.6264761,38.9628738 35.5748912,40.4912703 33.8632691,39.9293598 C32.151647,39.3674493 29.7016781,39.6371664 29.7016781,39.6371664 C29.7016781,39.6371664 27.9341206,39.8169777 27.7215662,37.9177202 L27.5761342,36.0971302 C27.5761342,36.0971302 29.0304537,35.8498896 29.2989434,35.5801726 C29.377253,35.5015051 29.3325047,35.4340759 29.2765693,35.4565523 C28.7172157,35.5914108 26.2224984,35.9847481 24.61156,35.4003612 C24.4773151,35.3554084 24.4885022,35.4228376 24.5220634,35.4902669 C24.6003729,35.6138872 24.8688626,35.8611278 25.7414543,36.0521774 L25.696706,36.9175196 C25.696706,36.9175196 25.4953387,39.6821192 22.0832815,39.8057395 C22.0832815,39.8057395 21.1547545,39.9068834 20.2821628,40.0866948 C19.3983841,40.2777443 18.615289,40.2440297 17.4518334,39.8619306 C17.4518334,39.8619306 18.0671224,38.9965884 19.8234929,38.1312462 C21.5798633,37.2659041 22.2622747,36.2319888 21.7029211,34.0967289 L21.2554382,34.5237809 C21.2554382,34.5237809 20.2933499,33.7033915 19.7787446,32.5121413 L19.6221255,32.9729079 C19.6221255,32.9729079 19.0180236,32.01766 18.6712244,30.7027895 C19.1522685,30.8264098 19.4319453,30.8938391 19.6668738,30.6690749 C19.8346799,30.4892635 19.8123058,30.1521172 19.7899316,29.9385912 C20.0360472,29.927353 20.304537,29.6126831 20.1814792,29.1069637 C20.147918,28.9608669 19.8570541,27.6684728 19.9912989,26.5783664 C20.1031697,25.6568332 20.3940336,24.3419627 21.4456184,22.7124222 C22.3182101,21.3413606 23.2802983,19.9028698 23.3026725,17.4754164 C23.3026725,17.3855107 23.23555,17.3180815 23.1460534,17.3180815 C23.0565569,17.3180815 22.9894344,17.3855107 22.9894344,17.4754164 C22.9558732,19.8017259 22.0273462,21.2065021 21.1659416,22.5326109 M27.7215662,16.9359823 L26.4798011,17.1270319 L26.7147296,18.1834236 L28.1243008,17.9586594 L27.7215662,16.9359823 Z M26.8489745,18.7453341 L26.6923555,20.4760185 C26.6587943,20.8693558 26.8601616,21.4425045 27.2740833,21.7122216 C27.5985084,21.9257475 28.0348042,21.9931768 28.5382225,21.9032711 C29.533872,21.7122216 29.6793039,21.0716436 29.6793039,20.7120209 C29.6793039,20.3861128 29.5786203,20.1051575 29.3548788,19.8129641 L28.3368552,18.4868553 L26.8489745,18.7453341 Z" id="Shape" fill="#D0033F"></path>
        </g>
    </g>
</svg>