<?xml version="1.0" encoding="UTF-8"?>
<svg width="124px" height="56px" viewBox="0 0 124 56" version="1.1" xmlns="http://www.w3.org/2000/svg" xmlns:xlink="http://www.w3.org/1999/xlink">
    <title>logos/helly-hansen</title>
    <g id="logos/helly-hansen" stroke="none" stroke-width="1" fill="none" fill-rule="evenodd">
        <g id="HH-logo" transform="translate(16.000000, 4.000000)">
            <rect id="Rectangle" fill="#010202" fill-rule="nonzero" x="0" y="0" width="92" height="49"></rect>
            <polygon id="Path" fill="#FFFFFF" fill-rule="nonzero" points="47.2573333 11.7550505 46.092 11.7550505 38.7626667 11.7550505 38.7626667 20.3857323 31.1266667 20.3857323 31.1266667 11.8787879 22.2333333 11.8787879 22.2333333 37.3377525 31.1266667 37.3377525 31.1266667 28.5833333 38.7626667 28.5833333 38.7626667 37.2449495 42.32 37.2449495 46.092 17.7872475"></polygon>
            <polygon id="Path" fill="#FFFFFF" fill-rule="nonzero" points="60.996 11.8478535 60.996 20.3857323 53.544 20.3857323 53.544 11.7550505 49.8333333 11.7550505 46.092 31.2127525 44.9266667 37.2449495 46.092 37.2449495 46.092 37.2449495 53.544 37.2449495 53.544 28.5833333 60.996 28.5833333 60.996 37.3068182 69.92 37.3068182 69.92 11.8478535"></polygon>
            <path d="M75.5626667,12.6212121 L75.5013333,12.6212121 L75.5013333,12.6212121 L75.0413333,12.6212121 L75.0413333,13.239899 L75.5013333,13.239899 L75.5626667,13.239899 C75.716,13.239899 75.808,13.2089646 75.8693333,13.147096 C75.9306667,13.0852273 75.9613333,13.0233586 75.9613333,12.8996212 C75.9613333,12.8068182 75.9306667,12.7140152 75.8693333,12.6830808 C75.7773333,12.6521465 75.6853333,12.6212121 75.5626667,12.6212121 Z" id="Path"></path>
            <path d="M75.3786667,10.9507576 C74.0293333,10.9507576 72.9253333,12.0643939 72.9253333,13.4255051 C72.9253333,14.7866162 74.0293333,15.9002525 75.3786667,15.9002525 C76.728,15.9002525 77.832,14.7866162 77.832,13.4255051 C77.832,12.0643939 76.728,10.9507576 75.3786667,10.9507576 Z M76.6666667,14.7866162 L75.9306667,14.7866162 C75.9,14.6938131 75.8693333,14.5391414 75.8693333,14.3844697 C75.8693333,14.229798 75.8693333,14.1060606 75.8693333,14.0751263 C75.8693333,13.9823232 75.808,13.8895202 75.7466667,13.8276515 C75.6853333,13.7657828 75.5933333,13.7348485 75.5013333,13.7348485 L75.0413333,13.7348485 L75.0413333,14.7556818 L74.3666667,14.7556818 L74.3666667,12.0334596 L75.5013333,12.0334596 L75.6546667,12.0334596 C75.992,12.0334596 76.2373333,12.0953283 76.4213333,12.2190657 C76.5746667,12.342803 76.6666667,12.5284091 76.6666667,12.8068182 C76.6666667,12.9614899 76.636,13.0852273 76.5746667,13.2089646 C76.5133333,13.3017677 76.3906667,13.3945707 76.268,13.4564394 C76.3906667,13.5183081 76.452,13.5492424 76.5133333,13.6420455 C76.544,13.7348485 76.6053333,13.8585859 76.6053333,14.0751263 C76.6053333,14.1369949 76.6053333,14.1988636 76.6053333,14.2916667 C76.6053333,14.5082071 76.6666667,14.6319444 76.728,14.6628788 L76.728,14.7866162 L76.6666667,14.7866162 Z" id="Shape"></path>
            <path d="M76.544,14.2916667 C76.544,14.1988636 76.544,14.1060606 76.544,14.0751263 C76.544,13.8895202 76.5133333,13.7348485 76.452,13.6420455 C76.3906667,13.5492424 76.3293333,13.5183081 76.2066667,13.4564394 C76.36,13.3945707 76.452,13.3017677 76.5133333,13.2089646 C76.5746667,13.0852273 76.6053333,12.9614899 76.6053333,12.8068182 C76.6053333,12.5593434 76.5133333,12.3737374 76.36,12.2190657 C76.2066667,12.0953283 75.9306667,12.0334596 75.5933333,12.0334596 L75.44,12.0334596 L74.3053333,12.0334596 L74.3053333,14.7556818 L74.98,14.7556818 L74.98,13.7348485 L75.44,13.7348485 C75.5626667,13.7348485 75.6546667,13.7657828 75.6853333,13.8276515 C75.7466667,13.8895202 75.7773333,13.9513889 75.808,14.0751263 C75.808,14.1060606 75.808,14.229798 75.808,14.3844697 C75.808,14.5391414 75.8386667,14.6628788 75.8693333,14.7866162 L76.6053333,14.7866162 L76.6053333,14.6938131 C76.6053333,14.6319444 76.544,14.5082071 76.544,14.2916667 Z M75.8386667,13.147096 C75.7773333,13.2089646 75.6853333,13.239899 75.532,13.239899 L75.4706667,13.239899 L75.0106667,13.239899 L75.0106667,12.6212121 L75.4706667,12.6212121 L75.4706667,12.6212121 L75.532,12.6212121 C75.6546667,12.6212121 75.7773333,12.6521465 75.8386667,12.6830808 C75.9,12.7449495 75.9306667,12.8068182 75.9306667,12.8996212 C75.9306667,13.0233586 75.9,13.0852273 75.8386667,13.147096 Z" id="Shape" fill="#FFFFFF" fill-rule="nonzero"></path>
            <path d="M75.3786667,10.4248737 L75.3786667,10.4248737 C73.7533333,10.4248737 72.404,11.7859848 72.404,13.4255051 C72.404,15.0959596 73.7533333,16.4261364 75.3786667,16.4261364 L75.3786667,16.4261364 C77.004,16.4261364 78.3533333,15.0650253 78.3533333,13.4255051 C78.3533333,11.7550505 77.004,10.4248737 75.3786667,10.4248737 Z M75.3786667,15.9002525 C74.0293333,15.9002525 72.9253333,14.7866162 72.9253333,13.4255051 C72.9253333,12.0643939 74.0293333,10.9507576 75.3786667,10.9507576 C76.728,10.9507576 77.832,12.0643939 77.832,13.4255051 C77.832,14.7866162 76.728,15.9002525 75.3786667,15.9002525 Z" id="Shape" fill="#FFFFFF" fill-rule="nonzero"></path>
        </g>
    </g>
</svg>