<?xml version="1.0" encoding="UTF-8"?>
<svg width="124px" height="56px" viewBox="0 0 124 56" version="1.1" xmlns="http://www.w3.org/2000/svg" xmlns:xlink="http://www.w3.org/1999/xlink">
    <title>logos/havep</title>
    <g id="logos/havep" stroke="none" stroke-width="1" fill="none" fill-rule="evenodd">
        <g id="havep-logo-vector" transform="translate(30.000000, 0.000000)" fill-rule="nonzero">
            <polygon id="Path" fill="#D91000" points="64 0 0 0 0 53.8832 1.76597974 56 3.53195948 53.8832 3.84491792 53.8832 5.58854349 55.8992 7.33216905 53.8832 7.65630458 53.8832 9.39993014 55.8992 11.1435557 53.8832 11.4565141 53.8832 13.2113168 55.8992 14.9549424 53.8832 15.2679008 53.8832 17.0115264 55.8992 18.766329 53.8832 19.0792875 53.8832 20.822913 55.8992 22.5665386 53.8832 22.8906741 53.8832 24.6342997 55.8992 26.3779253 53.8832 26.7020608 53.8832 28.4456863 55.8992 30.1893119 53.8832 30.5022703 53.8832 32.257073 55.8992 33.9895215 53.8832 34.313657 53.8832 36.0572826 55.8992 37.8009081 53.8832 38.1250437 53.8832 39.8686692 55.8992 41.6122948 53.8832 41.9364303 53.8832 43.6688788 56 45.3789731 53.8832 47.0890674 55.9776 48.832693 53.8832 49.1568285 53.8832 50.9004541 55.8992 52.6440796 53.8832 52.9570381 53.8832 54.7118407 55.8992 56.4554663 53.8832 56.7684247 53.8832 58.5120503 55.8992 60.266853 53.8832 60.5798114 53.8832 62.2228432 56 64 53.8832"></polygon>
            <path d="M9.03108627,24.248 L11.9371289,24.248 L11.9371289,32.1888 L15.8267552,32.1888 L15.8267552,24.248 L18.6992665,24.248 L18.6992665,43.1088 L15.8267552,43.1088 L15.8267552,34.8544 L11.9371289,34.8544 L11.9371289,43.1088 L9.03108627,43.1088 L9.03108627,24.248 Z M29.038072,24.248 L31.9105833,24.248 L34.190709,37.4976 L34.2689487,37.4976 L36.5602515,24.248 L39.1756898,24.248 L35.6437304,43.1088 L32.5812085,43.1088 L29.038072,24.248 Z M39.835138,24.248 L47.9049948,24.248 L47.9049948,26.8576 L42.7188264,26.8576 L42.7188264,32.0992 L46.8878798,32.0992 L46.8878798,34.5632 L42.7188264,34.5632 L42.7188264,40.432 L47.9608802,40.432 L47.9608802,43.0976 L39.8463151,43.0976 L39.8463151,24.248 L39.835138,24.248 Z M26.4561649,24.248 L23.4271743,24.248 L19.8952148,43.1088 L21.3258819,43.1088 L22.5218302,43.1088 L22.5218302,43.1088 L23.1924555,38.9536 L24.801956,29.6352 L24.8801956,29.6352 L26.4896961,38.9536 L27.1603213,43.1088 L27.1603213,43.1088 L27.8197695,43.1088 L30.0328327,43.1088 L26.4561649,24.248 Z M25.830248,39.8048 L23.8407265,39.8048 L23.3712889,43.1088 L26.2996856,43.1088 L25.830248,39.8048 Z M54.3206427,24.248 L49.480964,24.248 L49.480964,43.1088 L52.174642,43.1088 L52.174642,35.784 L52.174642,35.784 L52.174642,33.3648 L52.174642,33.3648 L52.174642,26.9472 L53.8847363,26.9472 C55.3377576,26.9472 55.8519036,28.0672 55.8519036,30.016 C55.8519036,32.3008 55.1812784,33.4208 53.7729654,33.4208 L53.2476423,33.4208 L53.2476423,36.12 L54.1641635,36.12 C57.2937478,36.12 58.7020608,33.6784 58.7020608,30.0608 C58.7020608,26.6224 57.3496333,24.248 54.3206427,24.248 Z" id="Shape" fill="#FFFFFF"></path>
        </g>
    </g>
</svg>