<?xml version="1.0" encoding="UTF-8"?>
<svg width="54px" height="32px" viewBox="0 0 54 32" version="1.1" xmlns="http://www.w3.org/2000/svg" xmlns:xlink="http://www.w3.org/1999/xlink">
    <title>badges/visa-32</title>
    <defs>
        <linearGradient x1="-198.007777%" y1="48.180238%" x2="93.441604%" y2="50.1561998%" id="linearGradient-1">
            <stop stop-color="#252860" offset="0%"></stop>
            <stop stop-color="#3D429B" offset="100%"></stop>
        </linearGradient>
        <linearGradient x1="-85.3268029%" y1="48.8845347%" x2="145.553031%" y2="50.7958049%" id="linearGradient-2">
            <stop stop-color="#252860" offset="0%"></stop>
            <stop stop-color="#3D429B" offset="100%"></stop>
        </linearGradient>
        <linearGradient x1="14.7491936%" y1="49.9004738%" x2="262.250369%" y2="51.1860292%" id="linearGradient-3">
            <stop stop-color="#252860" offset="0%"></stop>
            <stop stop-color="#3D429B" offset="100%"></stop>
        </linearGradient>
        <linearGradient x1="-7.76009824%" y1="49.2391616%" x2="140.84601%" y2="51.2161235%" id="linearGradient-4">
            <stop stop-color="#252860" offset="0%"></stop>
            <stop stop-color="#3D429B" offset="100%"></stop>
        </linearGradient>
    </defs>
    <g id="badges/visa-32" stroke="none" stroke-width="1" fill="none" fill-rule="evenodd">
        <rect id="Rectangle-7-Copy-7" fill-opacity="0" fill="#FFFFFF" x="0" y="0" width="54" height="32" rx="4"></rect>
        <g id="Group" transform="translate(0.000000, 7.000000)" fill-rule="nonzero">
            <path d="M46.8913673,0.293846829 C47.2845642,0.293846829 47.6778607,0.293846829 48.0721536,0.293846829 C48.8608392,0.293846829 49.6539091,0.293846829 50.460431,0.293846829 C50.5783104,0.833085985 50.6971862,1.36433063 50.8106811,1.89674521 C51.743054,6.26730245 52.6731349,10.6383472 53.6076999,15.0085144 C53.7273729,15.5682273 53.8686687,16.123748 54,16.681121 L54,16.7985037 L49.9348067,16.7985037 C49.7860376,16.099277 49.6265069,15.4150643 49.5005563,14.7250994 C49.448243,14.4387597 49.3546769,14.327714 49.0280425,14.3318088 C47.3979595,14.35238 45.7674779,14.3473103 44.1373949,14.3346361 C43.8905757,14.3326862 43.7925256,14.4124363 43.7173937,14.6323827 C43.4928948,15.289882 43.2472713,15.9407518 42.9960677,16.5889892 C42.9618897,16.6770262 42.8487933,16.7977238 42.7713696,16.7983087 C41.3021126,16.810788 39.8325568,16.8076682 38.3208513,16.8076682 C38.5962685,16.1585533 38.8571376,15.5386866 39.1220921,14.9204774 C41.0165317,10.4977609 42.9119678,6.07533682 44.807105,1.65291279 C45.21764,0.695034521 45.8329443,0.293846829 46.8913673,0.293846829 L46.8913673,0.293846829 Z M47.33897,4.88123066 C46.5942276,6.89116637 45.8494853,8.90119958 45.0964724,10.9334614 L48.6793867,10.9334614 C48.2462324,8.90119958 47.8187579,6.89633355 47.391383,4.89127254 C47.3739452,4.88786025 47.3565074,4.88454546 47.33897,4.88123066 Z" id="path30" fill="url(#linearGradient-1)"></path>
            <path d="M34.2492808,0 L36.2904967,0 C36.8269822,0.0973964773 37.3674536,0.177634016 37.8985583,0.297454106 C38.3833284,0.406744848 38.8579347,0.559420407 39.373196,0.702834039 C39.1135227,1.89089557 38.8600273,3.05048887 38.6120123,4.18492872 C37.9323378,3.99003827 37.2827558,3.76541216 36.6149389,3.62131607 C35.7016978,3.42398827 34.7658375,3.34882042 33.8520982,3.59801501 C33.4806238,3.69921375 33.1046654,3.89371423 32.8124083,4.13881407 C32.3106987,4.55930557 32.3040225,5.16445065 32.7831129,5.60600084 C33.1134341,5.91037702 33.504937,6.16015658 33.896141,6.39043734 C34.7856667,6.91378497 35.7195342,7.36888683 36.5839495,7.92781977 C37.6020165,8.58619656 38.3444671,9.49133059 38.5004106,10.7151724 C38.7761267,12.8795386 37.958046,14.5845131 36.0997773,15.790806 C34.9311476,16.5492117 33.6087665,16.8879057 32.2309831,17.0133804 C30.3070487,17.1886746 28.4210789,16.9777952 26.5828386,16.3868842 C26.4595785,16.3473016 26.339507,16.2978722 26.2194355,16.2498077 C26.1836631,16.2353786 26.1524744,16.2100301 26.0974707,16.1764922 C26.357144,14.9866758 26.617216,13.795007 26.8845619,12.5699952 C27.1979436,12.7039519 27.492094,12.8381036 27.7927212,12.9566563 C29.2287965,13.5228038 30.7121033,13.7817478 32.2492181,13.5 C32.6491908,13.4267722 33.0570354,13.2539154 33.3960257,13.0316292 C34.1315011,12.5491315 34.202149,11.6423401 33.5323392,11.0757051 C33.0921102,10.7032781 32.5629983,10.4280527 32.0612887,10.1291361 C31.2778843,9.66223752 30.4456541,9.26436462 29.7042,8.74169944 C28.7538912,8.07181837 28.0655476,7.17867609 27.935113,5.99149201 C27.7397103,4.21398192 28.4139045,2.77068117 29.8084281,1.64920802 C31.0217981,0.673488354 32.4623575,0.240420133 33.9970808,0.0584963828 C34.0822768,0.0484545037 34.1653802,0.0198887701 34.2492808,0 Z" id="path50" fill="url(#linearGradient-2)"></path>
            <path d="M15.7764016,0.546941179 C15.8533271,0.355170537 15.9479893,0.288582155 16.1567444,0.288582155 C16.1593351,0.288582155 16.1619259,0.288582155 16.1646163,0.288582155 C17.1273806,0.296089191 18.0902446,0.295406733 19.0531086,0.294724275 C19.430761,0.294431793 19.808513,0.294236805 20.1862649,0.294431793 C20.2728559,0.294431793 20.3594469,0.301743841 20.4822089,0.307398492 C20.2538239,0.844980249 20.0375955,1.35760355 19.8184774,1.86905692 C17.7263432,6.75233496 15.6315186,11.6344431 13.5479539,16.5212309 C13.4486084,16.7540465 13.3271418,16.8150777 13.0859027,16.8132253 C11.7653153,16.802501 10.4446282,16.7982113 9.12433963,16.8161556 C8.84443846,16.8197574 8.75316417,16.7238234 8.68879388,16.4780411 C7.56928885,12.209755 6.43124997,7.94605114 5.32439978,3.67454778 C5.12132446,2.89098873 4.71487488,2.35574683 3.95249545,2.02728964 C2.73045632,1.50082219 1.46198289,1.13083257 0.168000487,0.830356154 C0.110704947,0.816999479 0.0538079852,0.802472878 0,0.789213698 C0.00647688711,0.293944323 0.00647688711,0.293944323 0.488058355,0.293944323 C2.79901168,0.293944323 5.10986535,0.29335936 7.42081867,0.294139311 C8.51690726,0.294431793 9.30808393,0.91741827 9.51534432,1.97893263 C10.1020506,4.98398931 10.6762018,7.99128835 11.2557337,10.9976124 C11.2810434,11.1291318 11.3098406,11.2599687 11.348403,11.4451098 C11.4082893,11.3349416 11.4500403,11.2729354 11.4773429,11.2054696 C12.9126211,7.65347173 14.3483975,4.10166887 15.7764016,0.546941179 L15.7764016,0.546941179 Z" id="path70" fill="url(#linearGradient-3)"></path>
            <path d="M22.3398797,0.311493238 L26.7185543,0.311493238 C26.5363047,1.14838149 26.3580408,1.96937822 26.1786809,2.78998498 C25.1867207,7.32871932 24.1910737,11.8666737 23.2098751,16.4076504 C23.1417183,16.7230434 23.0274262,16.8233647 22.6928203,16.8170276 C21.4929022,16.794409 20.292187,16.8080581 19.0917707,16.8080581 L18.7320543,16.8080581 C19.9394457,11.287852 21.1381681,5.80644845 22.3398797,0.311493238 Z" id="path90" fill="url(#linearGradient-4)"></path>
        </g>
    </g>
</svg>